PathFileType	4	(X/Y/Z)	 s09c0001.trc
DataRate	CameraRate	NumFrames	NumMarkers	Units	OrigDataRate	OrigDataStartFrame	OrigNumFrames
200	200	4	49	mm	200	1501	2000
Frame#	Time	racr			lacr			c7			jug			rlel			rdr			llel			ldr			s2			lic			ric			lasi			rasi			rpsi			lpsi			rgt			lgt			rth1			rth2			rth3			rth4			rlfc			rmfc			rsh1			rsh2			rsh3			rsh4			rlmal			rmmal			rcal			rtoe			rmt5			rmt1			lth1			lth2			lth4			lth3			llfc			lmfc			llmal			lmmal			lcal			lmt1			lmt5			lsh1			lsh2			lsh3			lsh4			ltoe			
		X1	Y1	Z1	X2	Y2	Z2	X3	Y3	Z3	X4	Y4	Z4	X5	Y5	Z5	X6	Y6	Z6	X7	Y7	Z7	X8	Y8	Z8	X9	Y9	Z9	X10	Y10	Z10	X11	Y11	Z11	X12	Y12	Z12	X13	Y13	Z13	X14	Y14	Z14	X15	Y15	Z15	X16	Y16	Z16	X17	Y17	Z17	X18	Y18	Z18	X19	Y19	Z19	X20	Y20	Z20	X21	Y21	Z21	X22	Y22	Z22	X23	Y23	Z23	X24	Y24	Z24	X25	Y25	Z25	X26	Y26	Z26	X27	Y27	Z27	X28	Y28	Z28	X29	Y29	Z29	X30	Y30	Z30	X31	Y31	Z31	X32	Y32	Z32	X33	Y33	Z33	X34	Y34	Z34	X35	Y35	Z35	X36	Y36	Z36	X37	Y37	Z37	X38	Y38	Z38	X39	Y39	Z39	X40	Y40	Z40	X41	Y41	Z41	X42	Y42	Z42	X43	Y43	Z43	X44	Y44	Z44	X45	Y45	Z45	X46	Y46	Z46	X47	Y47	Z47	X48	Y48	Z48	X49	Y49	Z49	
1501	7.5050	278.474318	1353.647400	381.317155	281.444464	1336.658129	-11.973837	226.459841	1402.453443	181.541302	350.930336	1352.051324	180.782377	293.748986	1093.474045	448.284120	359.480552	880.060869	578.530104	273.418010	1052.618960	-48.740084	400.293942	899.044958	-196.632016	210.084896	946.432426	184.070439	349.820532	991.673423	48.244108	337.440998	1003.071884	337.282977	407.893864	955.770756	79.895043	397.226358	966.352117	318.543976	222.097965	978.681959	243.960785	222.888752	974.829414	133.227602	323.104466	847.030657	385.675056	328.042647	837.061052	9.966554	346.755029	716.570236	381.549732	362.703948	631.172994	368.054495	331.236308	548.544525	358.593924	393.315800	629.818098	348.291405	318.037771	451.029098	334.759123	300.849076	431.030219	236.753983	277.422587	361.120844	367.876981	301.811865	274.076576	359.584714	278.937251	189.258273	361.176085	327.484610	276.919683	329.601027	276.775757	86.707081	360.325852	286.148810	93.457379	283.798772	219.157721	32.017750	318.051006	471.914720	86.109709	354.315944	388.180343	49.245925	407.093680	400.983538	39.275101	297.138572	338.537667	710.645827	9.062875	353.919068	629.566896	25.827545	389.418738	627.706624	39.406622	325.659560	543.902681	34.577483	308.032522	449.232598	46.901563	316.838925	429.064700	139.983764	268.514568	84.951157	21.754976	291.168868	96.187370	92.399970	218.696534	26.690652	68.082081	406.278810	43.986872	87.229355	381.431328	33.838801	-18.419500	277.403614	355.113574	17.352133	295.466151	270.354723	21.275643	274.093431	198.258467	14.857043	322.654725	270.759123	50.394673	472.497195	79.158379	36.391583	
1502	7.5100	278.494425	1353.642589	381.299297	281.455632	1336.653219	-11.976160	226.469859	1402.455216	181.561063	350.950136	1352.043713	180.773495	293.762774	1093.454304	448.275981	359.467408	880.048344	578.532838	273.409609	1052.611978	-48.734942	400.286560	899.034972	-196.629433	210.077126	946.427888	184.072266	349.811043	991.669190	48.240582	337.418337	1003.078798	337.298358	407.894290	955.769023	79.875886	397.238154	966.337652	318.548631	222.106861	978.673584	243.945269	222.896118	974.834704	133.230406	323.090391	847.033342	385.681735	328.065656	837.047664	9.982160	346.746991	716.570478	381.555531	362.701748	631.159352	368.077897	331.237674	548.542460	358.610422	393.315340	629.817814	348.277148	318.024390	451.022309	334.761422	300.874630	431.039511	236.771454	277.439384	361.120893	367.885797	301.821811	274.074285	359.576421	278.936712	189.257360	361.186221	327.484390	276.911942	329.590885	276.763259	86.717047	360.319575	286.122919	93.474191	283.787767	219.164535	32.018515	318.063966	471.908425	86.107006	354.329661	388.174869	49.255855	407.087761	400.990981	39.278547	297.132526	338.540856	710.648997	9.076490	353.928995	629.552172	25.847109	389.447286	627.698348	39.437074	325.645957	543.915378	34.564710	308.037841	449.235354	46.932308	316.839611	429.064271	139.985169	268.509905	84.942305	21.763457	291.170001	96.185067	92.416520	218.690937	26.704172	68.089037	406.269515	44.000557	87.217159	381.453590	33.855808	-18.392994	277.403657	355.114158	17.363538	295.482497	270.378724	21.264981	274.132484	198.264402	14.772764	322.638248	270.740302	50.414940	472.482668	79.171659	36.382274	
1503	7.5150	278.488299	1353.653693	381.315208	281.461733	1336.653366	-11.974844	226.502895	1402.459779	181.529687	350.969352	1352.046880	180.783522	293.744803	1093.461485	448.263545	359.459734	880.042233	578.517055	273.399994	1052.620031	-48.719164	400.261795	899.037165	-196.621091	210.109237	946.425223	184.068607	349.833386	991.664804	48.243029	337.389989	1003.090292	337.316505	407.888406	955.755607	79.886772	397.236728	966.347730	318.545814	222.106767	978.681620	243.947115	222.887635	974.843285	133.237135	323.101420	847.026872	385.673603	328.068622	837.053518	9.981005	346.745961	716.567178	381.568517	362.700959	631.163067	368.063160	331.236579	548.534905	358.605134	393.309384	629.805076	348.286204	318.024852	451.037985	334.755247	300.853539	431.050433	236.751446	277.431908	361.120105	367.881602	301.810253	274.084595	359.587581	278.936309	189.266030	361.174461	327.480195	276.911352	329.595395	276.782814	86.693994	360.315752	286.141278	93.459001	283.791544	219.177747	32.007556	318.059837	471.919495	86.103520	354.323540	388.178950	49.259308	407.087862	401.007306	39.272863	297.139915	338.558460	710.646654	9.082878	353.925433	629.547409	25.860232	389.436224	627.687829	39.433334	325.641769	543.922868	34.586229	308.045750	449.231493	46.916038	316.815460	429.059806	139.993064	268.500158	84.951696	21.767496	291.179726	96.191822	92.412971	218.692001	26.716402	68.095990	406.283499	43.992727	87.223293	381.489366	33.832051	-18.404762	277.410308	355.110126	17.363188	295.482657	270.377773	21.265086	274.119727	198.267887	14.831061	322.673256	270.768102	50.375213	472.499666	79.159906	36.386735	
1504	7.5200	278.499739	1353.642933	381.322593	281.473649	1336.627054	-11.969919	226.512913	1402.461553	181.549448	350.957591	1352.033953	180.798625	293.763086	1093.455927	448.271152	359.447232	880.024454	578.509788	273.406448	1052.619322	-48.711703	400.248670	899.028891	-196.626522	210.105975	946.435767	184.068620	349.830616	991.668604	48.240152	337.413617	1003.081960	337.298059	407.917979	955.758743	79.910815	397.226865	966.344054	318.549315	222.111745	978.685445	243.966656	222.909037	974.839919	133.243600	323.113136	847.030607	385.682407	328.066601	837.057212	9.994370	346.745867	716.567668	381.556000	362.720646	631.158962	368.075849	331.232266	548.537097	358.627459	393.315214	629.814012	348.296773	318.021428	451.024338	334.755592	300.844816	431.034623	236.764810	277.426404	361.128877	367.891496	301.802772	274.079821	359.593366	278.937125	189.261162	361.186949	327.480866	276.907830	329.585768	276.773836	86.691048	360.313509	286.160589	93.465179	283.805733	219.157097	32.004022	318.056649	471.912430	86.097045	354.314085	388.168529	49.258348	407.081459	400.989531	39.280970	297.139485	338.555288	710.653320	9.077104	353.925434	629.547417	25.860216	389.456419	627.682729	39.476681	325.954948	543.864956	34.170027	308.031918	449.236628	46.917774	316.824426	429.049152	140.003836	268.509774	84.942371	21.763552	291.183336	96.183799	92.412412	218.699086	26.697831	68.081743	406.275995	43.988903	87.226969	381.453697	33.856247	-18.394376	277.406026	355.114874	17.358232	295.484223	270.378486	21.253978	274.134363	198.266000	14.780929	322.656871	270.749433	50.395331	472.511901	79.158944	36.372489	
